<svg xmlns="http://www.w3.org/2000/svg" width="90" height="90" viewBox="0 0 90 90">
    <g fill="none" fill-rule="evenodd">
        <g fill-rule="nonzero">
            <g>
                <g transform="translate(-594.000000, -180.000000) translate(350.000000, 130.000000) translate(244.000000, 50.000000)">
                    <circle cx="45" cy="45" r="45" fill="#DA4453"/>
                    <g fill="#FFF">
                        <path d="M31.032 32.994v-.09c0-4.014-3.816-7.29-8.532-7.29s-8.532 3.258-8.532 7.29v.09h17.064z" transform="translate(22.500000, 22.500000)"/>
                        <path d="M22.5 45C10.098 45 0 34.902 0 22.5S10.098 0 22.5 0 45 10.098 45 22.5 34.902 45 22.5 45zm0-42.822c-11.214 0-20.322 9.108-20.322 20.322 0 11.214 9.108 20.322 20.322 20.322 11.214 0 20.322-9.108 20.322-20.322 0-11.214-9.108-20.322-20.322-20.322z" transform="translate(22.500000, 22.500000)"/>
                        <path d="M34.506 15.354c0 1.872-1.512 3.402-3.402 3.402-1.89 0-3.402-1.512-3.402-3.402M15.93 15.354c0 1.872-1.512 3.402-3.402 3.402-1.89 0-3.402-1.512-3.402-3.402" transform="translate(22.500000, 22.500000)"/>
                    </g>
                </g>
            </g>
        </g>
    </g>
</svg>
