<svg xmlns="http://www.w3.org/2000/svg" width="16" height="16" viewBox="0 0 16 16">
    <g fill="none" fill-rule="evenodd">
        <g fill="#D8D8D8">
            <g>
                <g>
                    <path d="M8.955 3.092l.934 3.02h3.155c.552 0 1 .447 1 1 0 .311-.146.605-.393.794L11.056 9.89l.965 3.122c.163.528-.133 1.087-.66 1.25-.31.096-.646.036-.903-.16L8 12.223l-2.458 1.878c-.439.335-1.067.251-1.402-.188-.196-.257-.256-.593-.16-.902l.964-3.122L2.35 7.906c-.439-.335-.523-.963-.187-1.402.189-.247.483-.393.794-.393h3.155l.934-3.02c.163-.527.723-.822 1.25-.66.316.098.563.345.66.66z" transform="translate(-133.000000, -422.000000) translate(70.000000, 421.000000) translate(63.000000, 1.000000)"/>
                </g>
            </g>
        </g>
    </g>
</svg>
