<svg xmlns="http://www.w3.org/2000/svg" width="40" height="40" viewBox="0 0 40 40">
    <g fill="none" fill-rule="evenodd">
        <g>
            <g>
                <g transform="translate(-750.000000, -350.000000) translate(70.000000, 320.000000) translate(680.000000, 30.000000)">
                    <circle cx="20" cy="20" r="20" fill="#197851"/>
                    <path fill="#FFF" d="M14.058 13l2.547.092c.537.02 1.013.358 1.218.867l.754 1.863c.175.434.128.929-.126 1.32l-.965 1.484c.571.82 2.125 2.743 3.77 3.868l1.228-.755c.312-.192.685-.249 1.038-.158l2.44.625c.648.167 1.085.789 1.034 1.473l-.157 2.088c-.055.733-.654 1.308-1.366 1.225C16.075 25.9 10.563 13 14.058 13z"/>
                </g>
            </g>
        </g>
    </g>
</svg>
