<svg xmlns="http://www.w3.org/2000/svg" width="71" height="88" viewBox="0 0 71 88">
    <g fill="none" fill-rule="evenodd">
        <g fill-rule="nonzero">
            <g>
                <g>
                    <g fill="#191919">
                        <path d="M35.851 30.079c-1.46.626-15.224 6.556-20.105 8.438C10.866 40.4-.786 14.184 4.125 12.094c4.91-2.09 18.781-8.664 19.826-9.109 1.045-.445 13.364 26.468 11.9 27.094z" transform="translate(-605.000000, -180.000000) translate(350.000000, 130.000000) translate(255.000000, 50.000000) translate(0.000000, 45.629588)"/>
                        <path d="M15.21 41.59c-2.191 0-4.496-1.664-6.868-4.966-2.228-3.24-4.084-6.721-5.533-10.377-2.65-6.537-4.773-14.772.163-16.87 3.335-1.419 11.073-5.032 15.695-7.192C21.205.999 22.439.42 22.795.269c2.594-1.112 4.17 1.515 4.818 2.638.585.99 1.33 2.387 2.223 4.15 1.675 3.336 3.67 7.68 5.333 11.574 1.25 2.928 2.242 5.444 2.869 7.275.31.864.564 1.747.763 2.642.586 2.913-1.052 3.958-1.786 4.27l-.771.33C26.3 37.413 19.764 40.155 16.81 41.3c-.511.194-1.054.292-1.6.289zM5.917 14.555c-.118 1.32.449 5.166 3.11 11.155 2.66 5.989 5.184 9.05 6.214 9.813 2.965-1.171 8.798-3.613 17.348-7.278-1.557-4.818-7.071-16.98-9.61-21.55l-1.808.848C16.502 9.73 9.576 12.97 5.918 14.555z" transform="translate(-605.000000, -180.000000) translate(350.000000, 130.000000) translate(255.000000, 50.000000) translate(0.000000, 45.629588)"/>
                    </g>
                    <path fill="#2D581B" d="M35.851 75.709c-1.46.626-15.224 6.555-20.105 8.438C10.866 86.03-.786 59.814 4.125 57.724c4.91-2.09 18.781-8.665 19.826-9.11 1.045-.444 13.364 26.468 11.9 27.095z" transform="translate(-605.000000, -180.000000) translate(350.000000, 130.000000) translate(255.000000, 50.000000)"/>
                    <path fill="#191919" d="M64.757 59.065c-1.111.252-1.545-.915-.47-1.27 3.205-1.053 3.939-8.784-.9-8.01-1.139.182-1.717-1.055-.127-1.56 3.606-1.14 3.135-10.44-1.649-8.986-2.26.685-2.472-.545-1.43-1.112 2.46-1.312 2.39-2.913 1.537-5.088-1.745-4.447-8.204-2.965-18.185-1.657-4.573.6-5.521 2.568-3.46 4.558-.61.186-1.27.108-1.82-.215-2.083-1.649 1.111-4.31-4.077-17.02-3.146-7.728-11.533-5.827-10.491 4.49 1.274 12.63-3.143 15.866-6.616 24.686-4.143 10.521 1.279 21.287 8.154 25.14 6.874 3.855 13.34 4.448 22.16 1.554 9.092-2.965 13.446-5.393 16.752-6.923 5.459-2.535 3.732-9.298.622-8.587z" transform="translate(-605.000000, -180.000000) translate(350.000000, 130.000000) translate(255.000000, 50.000000)"/>
                    <path fill="#191919" d="M37.278 79.355c-4.696 0-9.035-1.238-13.516-3.746-8.2-4.596-14.153-16.918-9.468-28.814.974-2.468 2.027-4.543 2.964-6.374 2.51-4.94 4.322-8.524 3.47-16.925-.783-7.727 2.868-11.448 6.229-12.282 3.361-.833 7.697.823 9.961 6.375 2.12 5.188 2.928 8.894 3.243 11.544.975-.333 1.982-.562 3.006-.682 1.148-.149 2.25-.3 3.302-.445 4.287-.59 7.678-1.052 10.491-.86 3.847.267 6.382 1.887 7.53 4.818.7 1.781.89 3.356.571 4.725 1.412.723 2.528 2.094 3.113 3.988.737 2.421.534 5.032-.567 7.311 1.015.842 1.72 1.997 2.005 3.284.468 2.125.157 4.348-.878 6.263.686.694 1.202 1.537 1.508 2.464 1.186 3.473-.104 8.153-4.858 10.343-.579.267-1.19.564-1.853.886-4.913 2.435-10.002 4.497-15.224 6.167-3.999 1.3-7.609 1.96-11.03 1.96zm-8.65-62.419c-.083 0-.167.01-.248.03-.89.222-2.153 2.027-1.76 5.93 1.022 10.143-1.457 15.03-4.077 20.204-.912 1.798-1.853 3.654-2.724 5.863-2.386 6.055-1.334 16.884 6.849 21.468 6.318 3.54 11.859 3.91 19.793 1.323 4.967-1.589 9.807-3.55 14.48-5.866.696-.337 1.337-.649 1.945-.93.96-.445 1.571-1.112 1.764-1.92.075-.323.075-.659 0-.982-1.742.136-3.34-.971-3.825-2.65-.515-1.853.541-3.735 2.461-4.402.419-.349.719-1.646.567-2.29-2.079.333-3.988-.86-4.447-2.776-.37-1.59.37-3.658 2.828-4.5.303-.52.457-1.113.444-1.715.026-.554-.074-1.106-.292-1.616-4.003 1.167-5.281-1.375-5.5-1.901-.719-1.738.085-3.706 1.916-4.684.176-.09.342-.196.496-.32-.068-.366-.177-.724-.326-1.066-.144-.371-.37-.927-2.42-1.068-2.223-.152-5.484.297-9.264.82-1.068.148-2.183.3-3.336.448-.416.05-.83.126-1.238.226.41.775.454 1.691.123 2.503-.33.812-1.004 1.435-1.838 1.703-1.55.491-3.24.228-4.566-.712-1.92-1.519-1.946-3.487-1.964-5.221-.026-2.16-.07-5.778-3.013-13.004-.834-1.96-1.99-2.895-2.828-2.895z" transform="translate(-605.000000, -180.000000) translate(350.000000, 130.000000) translate(255.000000, 50.000000)"/>
                    <path fill="#FFF" d="M64.757 59.065c-1.111.252-1.545-.915-.47-1.27 3.205-1.053 3.939-8.784-.9-8.01-1.139.182-1.717-1.055-.127-1.56 3.606-1.14 3.135-10.44-1.649-8.986-2.26.685-2.472-.545-1.43-1.112 2.46-1.312 2.39-2.913 1.537-5.088-1.745-4.447-8.204-2.965-18.185-1.657-4.573.6-5.521 2.568-3.46 4.558-.61.186-1.27.108-1.82-.215-2.083-1.649 1.111-4.31-4.077-17.02-3.146-7.728-11.533-5.827-10.491 4.49 1.274 12.63-3.143 15.866-6.616 24.686-4.143 10.521 1.279 21.287 8.154 25.14 6.874 3.855 13.34 4.448 22.16 1.554 9.092-2.965 13.446-5.393 16.752-6.923 5.459-2.535 3.732-9.298.622-8.587z" transform="translate(-605.000000, -180.000000) translate(350.000000, 130.000000) translate(255.000000, 50.000000)"/>
                    <path fill="#E6E6E6" d="M61.3 32.138c-2.446-3.139-7.512-2.083-17.489-.763-4.991.66-5.8 2.594-3.754 4.57C49.974 33.78 58.34 28.31 61.3 32.137z" transform="translate(-605.000000, -180.000000) translate(350.000000, 130.000000) translate(255.000000, 50.000000)"/>
                    <g fill="#191919">
                        <path d="M14.522.449c-.563-.867-3.202-.404-3.161.76 0 .507 1.597 6.855 1.908 7.411.415.741 2.928.097 3.161-.76.16-.585-1.6-6.94-1.908-7.411zM1.629 21.317c-1.364.741-.345 3.554.778 3.231.26-.074 4.414-.852 4.662-1.019.578-.37-.063-3.335-.778-3.231-.315.048-4.41.885-4.662 1.019zM32.83 18.082c.785-.675.288-3.799-.69-3.636-.634.104-3.662.87-4.077 1.297-.74.741-.289 3.64.845 3.358.808-.208 3.443-.608 3.921-1.02zM28.667 5.745c.315-1.209-2.053-2.48-3.053-1.646-.649.541-3.632 4.684-3.791 5.244-.27.956 1.875 2.28 2.683 1.645.519-.404 3.987-4.52 4.161-5.243zM2.107 7.527C.7 7.034-.72 9.128.41 10.3c.289.308 6.589 4.058 6.833 4.206.645.37 2.165-2.075 1.698-2.772-.182-.252-6.556-4.106-6.834-4.206z" transform="translate(-605.000000, -180.000000) translate(350.000000, 130.000000) translate(255.000000, 50.000000) translate(11.578894, 0.000000)"/>
                    </g>
                    <path fill="#FFF" d="M38.59 35.818c-1.079-.904.515-2.246.278-4.973" transform="translate(-605.000000, -180.000000) translate(350.000000, 130.000000) translate(255.000000, 50.000000)"/>
                    <path fill="#191919" d="M38.59 37.3c-.347 0-.683-.122-.949-.344-1.323-1.112-.89-2.554-.6-3.513.291-.79.417-1.63.37-2.469-.046-.53.194-1.043.63-1.348.435-.305 1-.355 1.482-.13.481.225.807.69.853 1.219.088 1.211-.07 2.428-.467 3.576-.052.178-.122.404-.16.564.375.44.46 1.058.216 1.582-.242.524-.768.86-1.346.86l-.03.003z" transform="translate(-605.000000, -180.000000) translate(350.000000, 130.000000) translate(255.000000, 50.000000)"/>
                </g>
            </g>
        </g>
    </g>
</svg>
