<svg xmlns="http://www.w3.org/2000/svg" width="22" height="22" viewBox="0 0 22 22">
    <g fill="none" fill-rule="evenodd">
        <g fill="#999">
            <g>
                <g>
                    <g>
                        <g>
                            <path d="M19.582 2.186c-.23-.86-.907-1.538-1.768-1.768C16.254 0 10 0 10 0S3.746 0 2.186.418c-.86.23-1.538.908-1.768 1.768C0 3.746 0 7 0 7s0 3.254.418 4.814c.23.86.908 1.538 1.768 1.768C3.746 14 10 14 10 14s6.254 0 7.814-.418c.86-.23 1.538-.908 1.768-1.768C20 10.254 20 7 20 7s0-3.254-.418-4.814zM8 10V4l5.196 3L8 10z" transform="translate(-258.000000, -4707.000000) translate(0.000000, 4257.000000) translate(50.000000, 450.000000) translate(208.000000, 0.000000) translate(1.000000, 4.000000)"/>
                        </g>
                    </g>
                </g>
            </g>
        </g>
    </g>
</svg>
