<svg xmlns="http://www.w3.org/2000/svg" xmlns:xlink="http://www.w3.org/1999/xlink" width="100" height="100" viewBox="0 0 100 100">
    <defs>
        <linearGradient id="qy8pyxskba" x1="50%" x2="50%" y1="0%" y2="100%">
            <stop offset="0%" stop-color="#B7D8D1"/>
            <stop offset="98.809%" stop-color="#79A098"/>
        </linearGradient>
        <linearGradient id="gb74t9pt7d" x1="50%" x2="50%" y1="0%" y2="100%">
            <stop offset="0%" stop-color="#B7D8D1"/>
            <stop offset="98.809%" stop-color="#79A098"/>
        </linearGradient>
        <filter id="dvzmzxat0c" width="123.1%" height="115%" x="-11.5%" y="-7.5%" filterUnits="objectBoundingBox">
            <feGaussianBlur in="SourceAlpha" result="shadowBlurInner1" stdDeviation="2"/>
            <feOffset dy="-5" in="shadowBlurInner1" result="shadowOffsetInner1"/>
            <feComposite in="shadowOffsetInner1" in2="SourceAlpha" k2="-1" k3="1" operator="arithmetic" result="shadowInnerInner1"/>
            <feColorMatrix in="shadowInnerInner1" values="0 0 0 0 0.56838749 0 0 0 0 0.745612545 0 0 0 0 0.710167534 0 0 0 1 0"/>
        </filter>
        <filter id="3f2g3lfagf" width="145%" height="115%" x="-22.5%" y="-7.5%" filterUnits="objectBoundingBox">
            <feGaussianBlur in="SourceAlpha" result="shadowBlurInner1" stdDeviation="2"/>
            <feOffset dy="-5" in="shadowBlurInner1" result="shadowOffsetInner1"/>
            <feComposite in="shadowOffsetInner1" in2="SourceAlpha" k2="-1" k3="1" operator="arithmetic" result="shadowInnerInner1"/>
            <feColorMatrix in="shadowInnerInner1" values="0 0 0 0 0.56838749 0 0 0 0 0.745612545 0 0 0 0 0.710167534 0 0 0 1 0"/>
        </filter>
        <path id="dkql37jogb" d="M55.353.511C54.31.203 53.267.058 52.226 0l-.82 2.7-.725 2.392-4.482 14.761-.701 2.308-.7-2.308-4.482-14.761-.725-2.393L38.772 0c-1.04.058-2.084.203-3.126.511-7.162 2.14-11.224 9.627-9.068 16.726 1.844 6.074 7.637 9.856 13.752 9.503l1.89 6.222-8.115 26.724.244.073c5.78 1.433 7.51-4 7.51-4L45.5 43.77l3.643 11.99s1.73 5.433 7.513 4l.24-.073-8.115-26.724 1.89-6.222c6.115.353 11.908-3.43 13.75-9.503 2.155-7.099-1.907-14.586-9.07-16.726zM31.506 15.768c-1.012-3.345.206-6.82 2.795-8.884l4.482 14.763c-3.306-.3-6.258-2.535-7.277-5.879zm27.986 0c-1.02 3.346-3.97 5.579-7.278 5.879l4.48-14.763c2.59 2.065 3.812 5.539 2.798 8.884z"/>
        <path id="dqhboo1ffe" d="M2.862 0L0 0 0 60 2.862 60 5.723 60 20 60 20 52.927 5.723 52.927 5.723 49.992 11.714 49.992 17.138 49.992 20 49.992 20 44.284 17.138 44.284 11.714 44.284 5.723 44.284 5.723 41.379 11.714 41.379 17.138 41.379 20 41.379 20 35.675 17.138 35.675 11.714 35.675 5.723 35.675 5.723 32.761 11.714 32.761 17.138 32.761 20 32.761 20 27.06 17.138 27.06 11.714 27.06 5.723 27.06 5.723 24.148 11.714 24.148 17.138 24.148 20 24.148 20 18.445 17.138 18.445 11.714 18.445 5.723 18.445 5.723 15.711 11.714 15.711 17.138 15.711 20 15.711 20 10.009 17.138 10.009 11.714 10.009 5.723 10.009 5.723 7.07 20 7.07 20 0 5.723 0"/>
    </defs>
    <g fill="none" fill-rule="evenodd">
        <g fill-rule="nonzero">
            <g>
                <g>
                    <g>
                        <g>
                            <g transform="translate(-760.000000, -851.000000) translate(50.000000, 716.000000) translate(645.000000, 70.000000) translate(65.000000, 65.000000) translate(50.145826, 50.230762) rotate(-30.000000) translate(-50.145826, -50.230762) translate(17.645826, 20.230762)">
                                <use fill="url(#qy8pyxskba)" xlink:href="#dkql37jogb"/>
                                <use fill="#000" filter="url(#dvzmzxat0c)" xlink:href="#dkql37jogb"/>
                            </g>
                            <g transform="translate(-760.000000, -851.000000) translate(50.000000, 716.000000) translate(645.000000, 70.000000) translate(65.000000, 65.000000) translate(50.145826, 50.230762) rotate(-30.000000) translate(-50.145826, -50.230762) translate(17.645826, 20.230762)">
                                <use fill="url(#gb74t9pt7d)" xlink:href="#dqhboo1ffe"/>
                                <use fill="#000" filter="url(#3f2g3lfagf)" xlink:href="#dqhboo1ffe"/>
                            </g>
                        </g>
                    </g>
                </g>
            </g>
        </g>
    </g>
</svg>
