<svg xmlns="http://www.w3.org/2000/svg" width="22" height="22" viewBox="0 0 22 22">
    <g fill="none" fill-rule="evenodd">
        <g fill="#999">
            <g>
                <g>
                    <g>
                        <g>
                            <path d="M6.288 17c7.544 0 11.672-6.546 11.672-12.212 0-.184 0-.369-.008-.553.8-.61 1.496-1.364 2.048-2.218-.752.343-1.544.578-2.36.678.856-.536 1.496-1.381 1.8-2.377-.808.502-1.688.854-2.608 1.038C15.28-.377 12.68-.46 11.024 1.172 9.96 2.218 9.504 3.783 9.84 5.273 6.552 5.097 3.472 3.465 1.392.787.304 2.745.856 5.257 2.664 6.512c-.656-.017-1.288-.2-1.864-.536v.05c0 2.043 1.376 3.8 3.296 4.21-.608.177-1.24.202-1.856.076.536 1.75 2.08 2.946 3.832 2.98-1.456 1.197-3.248 1.841-5.096 1.841-.328 0-.656-.025-.976-.058C1.88 16.339 4.056 17 6.288 17z" transform="translate(-154.000000, -4707.000000) translate(0.000000, 4257.000000) translate(50.000000, 450.000000) translate(104.000000, 0.000000) translate(1.000000, 3.000000)"/>
                        </g>
                    </g>
                </g>
            </g>
        </g>
    </g>
</svg>
