<svg xmlns="http://www.w3.org/2000/svg" xmlns:xlink="http://www.w3.org/1999/xlink" width="100" height="100" viewBox="0 0 100 100">
    <defs>
        <linearGradient id="uty78cum9a" x1="50%" x2="50%" y1="0%" y2="96.085%">
            <stop offset="0%" stop-color="#A6F0AC"/>
            <stop offset="100%" stop-color="#87E98E"/>
        </linearGradient>
        <filter id="fp9i87txlc" width="110%" height="115.5%" x="-5%" y="-7.8%" filterUnits="objectBoundingBox">
            <feGaussianBlur in="SourceAlpha" result="shadowBlurInner1" stdDeviation="2"/>
            <feOffset dy="-5" in="shadowBlurInner1" result="shadowOffsetInner1"/>
            <feComposite in="shadowOffsetInner1" in2="SourceAlpha" k2="-1" k3="1" operator="arithmetic" result="shadowInnerInner1"/>
            <feColorMatrix in="shadowInnerInner1" values="0 0 0 0 0.471782988 0 0 0 0 0.883152174 0 0 0 0 0.504366686 0 0 0 1 0"/>
        </filter>
        <path id="dlkzesm65b" d="M88.425 31.458H47.39l3.013-1.831c.06-.042 3.764-2.48 5.458-4.89.209-.342.36-.717.538-1.078 1.404-2.348 2.22-5.092 2.22-8.03C58.619 6.999 51.654 0 43.067 0c-2.182 0-4.24.485-6.12 1.305-1.02.503-2.993 1.565-2.993 1.565l-8.49 5.192-15.17 8.464h.016c-3.625 1.948-6.513 5.088-8.09 8.94l-.01-.026S-1.017 31.732.33 39.45c.01.059.024.117.034.182.065.356.13.714.216 1.08.002-.009.006-.012.01-.02.286 1.214.691 2.414 1.249 3.588 0 0 .213.434.588 1.09.126.222.254.444.39.664.855 1.412 2.302 3.394 4.156 5.129.975.854 3.106 2.634 5.054 3.628 3.17 1.552 8.194 3.147 15.49 3.255v.019h39.609l20.955-24.18.004-.011.349-.398v-.04L90 31.458h-1.575zM66.369 53.32H27.707v.023c-2.435-.015-7.853-.303-12.917-2.363-.386-.178-.77-.363-1.125-.562l-.052-.034c-.485-.277-.939-.574-1.359-.896 0 .004 0 .008-.002.015-.109-.085-.233-.163-.337-.252-.026-.019-.03-.03-.053-.05-.182-.133-.369-.264-.548-.404-.424-.333-.808-.667-1.174-1.002-.015-.011-.032-.026-.045-.04-2.99-2.762-4.11-5.47-4.11-5.47-.62-1.302-1.005-2.654-1.178-4.012 0-.004-.002-.004-.004-.004 0-.007 0-.015-.002-.026-.062-.485-.098-.97-.105-1.454-.388-6.294 2.12-10.388 2.12-10.388l.01.01c2.158-4.393 6.64-7.426 11.845-7.426 6.758 0 12.323 5.095 13.126 11.669.028.479.08 2.06-.349 3.067-.524 1.379-1.537 3.424-3.246 4.628-.134.108-.279.218-.458.333-.06.038-.122.055-.184.097-.02.011-.034.026-.053.038-.02.011-.044.015-.066.022-3.278 1.928-6.603.726-6.603.726l.001-.012c-.715-.163-1.39-.435-1.985-.831-.07-.047-.138-.104-.206-.152-1.501-1.09-2.488-2.857-2.488-4.856 0-2.253 1.247-4.189 3.07-5.213l-.009-.017s1.547-1.151 3.442-.447c.023.006.032.015.055.025.028.011.05.023.079.038.41.172.644.34.744.503.63.555 1.05 1.345 1.05 2.254 0 .94-.456 1.74-1.133 2.287-.563.401-.955 1.028-.955 1.774 0 1.221.985 2.212 2.199 2.212.67 0 1.241-.326 1.637-.807l.007.006s.773-.907 1.093-1.333c.024-.038.05-.069.077-.105.013-.018.042-.054.051-.07.004-.005-.002-.013 0-.022.765-1.129 1.232-2.471 1.232-3.944 0-4.007-3.233-7.258-7.22-7.258-.25 0-.485.063-.728.09v-.007c-.023.002-.045.012-.07.014-.494.06-.966.162-1.422.318-4.224 1.213-7.33 5.06-7.33 9.694 0 3.984 2.3 7.388 5.615 9.057l-.019.034.37.155c.15.07.3.129.452.193.67.276 1.571.632 1.953.721 0 0 5.558 1.661 11.96-2.563l.002.015.475-.322c.005-.008.01-.011.017-.011l3.097-2.1 5.21-3.395h40.41L66.37 53.32z"/>
    </defs>
    <g fill="none" fill-rule="evenodd">
        <g fill-rule="nonzero">
            <g>
                <g>
                    <g>
                        <g transform="translate(-115.000000, -851.000000) translate(50.000000, 716.000000) translate(0.000000, 70.000000) translate(65.000000, 65.000000) translate(5.000000, 21.000000)">
                            <use fill="url(#uty78cum9a)" xlink:href="#dlkzesm65b"/>
                            <use fill="#000" filter="url(#fp9i87txlc)" xlink:href="#dlkzesm65b"/>
                        </g>
                    </g>
                </g>
            </g>
        </g>
    </g>
</svg>
