<svg xmlns="http://www.w3.org/2000/svg" xmlns:xlink="http://www.w3.org/1999/xlink" width="171" height="41" viewBox="0 0 171 41">
    <defs>
        <linearGradient id="t0mp9ax0gb" x1="100%" x2="0%" y1="0%" y2="100%">
            <stop offset="0%" stop-color="#00F19E"/>
            <stop offset="100%" stop-color="#138B66"/>
        </linearGradient>
        <path id="6e8qe46x6a" d="M0 0L40.181 0 40.181 40.181 0 40.181z"/>
    </defs>
    <g fill="none" fill-rule="evenodd">
        <g>
            <g>
                <g transform="translate(-50.000000, -20.000000) translate(50.000000, 20.000000)">
                    <mask id="luj8e63eic" fill="#fff">
                        <use xlink:href="#6e8qe46x6a"/>
                    </mask>
                    <path fill="url(#t0mp9ax0gb)" d="M35.509 20.714c0 5.788-3.406 11.077-8.683 13.477-.302.138-.612.267-.93.385l-.006.001c-1.208.454-2.474.744-3.769.865-.465.044-.939.067-1.407.067h-3.66V27.02H27.8v-4.672H17.054v-5.763H27.8v-4.672H12.38v10.435H4.672v-2.881c0-8.158 6.638-14.796 14.795-14.796H35.51v16.042zM19.467 0C8.734 0 0 8.732 0 19.468v7.553h12.381v13.16h8.333c.618 0 1.24-.03 1.847-.087 1.702-.159 3.373-.542 4.961-1.139.423-.155.843-.33 1.245-.515.001-.002.004-.002.006-.003 6.93-3.154 11.408-10.11 11.408-17.723V0H19.467z" mask="url(#luj8e63eic)"/>
                </g>
                <g fill="#1D1D1B">
                    <path d="M12.237 19.767h3.948V6.693h-3.948v13.074zm-.497-17.31C11.74 1.099 12.864 0 14.198 0c1.386 0 2.484 1.098 2.484 2.458s-1.098 2.457-2.484 2.457c-1.334 0-2.458-1.098-2.458-2.457zM2.615 10.12H0V6.693h2.615V5.256C2.615 1.935 4.968 0 7.87 0c1.046 0 1.778.105 2.353.287v3.478c-.418-.157-.836-.236-1.411-.236-1.595 0-2.249.654-2.249 2.223v.941h3.66v3.426h-3.66v9.648H2.615v-9.648zM20.838 14.982v-4.863h-2.614V6.693h2.614V3.06h3.948v3.634h3.66v3.426h-3.66v4.052c0 1.569.654 2.223 2.223 2.223.601 0 1.02-.079 1.438-.235v3.503c-.575.157-1.308.262-2.353.262-2.903 0-5.256-1.622-5.256-4.942M52.859 15.505h4.157c.052 1.046.942 1.569 2.066 1.569 1.02 0 1.464-.366 1.464-.837 0-.576-.47-.837-1.49-1.098l-2.641-.68c-2.275-.575-3.295-2.17-3.295-4.105 0-2.275 2.014-3.948 5.465-3.948 2.876 0 5.23 1.464 5.412 4.236h-3.974c-.157-.968-.837-1.203-1.517-1.203-.81 0-1.333.313-1.333.836 0 .68.732.864 1.333 1.02l2.38.628c2.64.706 3.687 2.04 3.687 4.105 0 2.431-2.327 4.026-5.622 4.026-3.556 0-5.961-1.987-6.092-4.55M67.004.157h3.948v7.87c.627-.89 1.935-1.621 3.635-1.621 3.215 0 5.072 2.38 5.072 5.804v7.557H75.71V12.89c0-1.804-.706-2.902-2.118-2.902-1.49 0-2.64 1.072-2.64 3.425v6.354h-3.95V.157zM82.743 19.767h3.949V6.693h-3.949v13.074zm-.496-17.31C82.247 1.099 83.37 0 84.705 0c1.385 0 2.483 1.098 2.483 2.458s-1.098 2.457-2.483 2.457c-1.334 0-2.458-1.098-2.458-2.457zM89.933 6.693h3.949v1.334c.627-.89 1.934-1.621 3.634-1.621 3.216 0 5.072 2.379 5.072 5.804v7.557H98.64V12.89c0-1.804-.706-2.902-2.118-2.902-1.49 0-2.64 1.072-2.64 3.425v6.354h-3.949V6.693zM108.837 11.635h5.595c-.418-1.569-1.7-2.092-2.72-2.092-1.568 0-2.535.89-2.875 2.092m-3.948 1.57c0-3.923 2.98-6.8 6.929-6.8 3.765 0 7.137 2.563 6.98 7.74h-10.066c.183 1.334 1.177 2.51 3.294 2.51 1.15 0 2.197-.523 2.51-1.228h4.132c-.837 2.719-3.556 4.627-6.85 4.627-4.053 0-6.93-2.876-6.93-6.85M34.42 6.693h3.948v1.334c.628-.89 1.935-1.621 3.635-1.621 3.216 0 5.072 2.379 5.072 5.804v7.557h-3.948V12.89c0-1.804-.706-2.902-2.118-2.902-1.49 0-2.64 1.072-2.64 3.425v6.354H34.42V6.693z" transform="translate(-50.000000, -20.000000) translate(50.000000, 20.000000) translate(51.023419, 7.300000)"/>
                </g>
            </g>
        </g>
    </g>
</svg>
